<svg width="40" height="68" viewBox="0 0 40 68" fill="none" xmlns="http://www.w3.org/2000/svg">
<path d="M0 34.0931C0 23.5089 10.4158 14.2326 21 14.2326C40 14.2326 40 0 40 0V68C40 68 40 53.7674 21 53.7674C21.1241 53.7674 20.8778 53.7674 21 53.7674C11 53.7674 0 44.611 0 34.0931Z" fill="#AEAEAE"/>
<path d="M15.125 45.625C14.5625 45.625 14.0625 45.4375 13.6875 45.0625C12.875 44.3125 12.875 43 13.6875 42.25L22.25 33.625L13.6875 25.0625C12.875 24.3125 12.875 23 13.6875 22.25C14.4375 21.4375 15.75 21.4375 16.5 22.25L26.5 32.25C27.3125 33 27.3125 34.3125 26.5 35.0625L16.5 45.0625C16.125 45.4375 15.625 45.625 15.125 45.625Z" fill="white"/>
</svg>
