<svg width="40" height="68" viewBox="0 0 40 68" fill="none" xmlns="http://www.w3.org/2000/svg">
<path d="M40 34.0931C40 23.5089 29.5842 14.2326 19 14.2326C0 14.2326 0 0 0 0V68C0 68 0 53.7674 19 53.7674C18.8759 53.7674 19.1222 53.7674 19 53.7674C29 53.7674 40 44.611 40 34.0931Z" fill="#AEAEAE"/>
<path d="M24.875 45.625C25.4375 45.625 25.9375 45.4375 26.3125 45.0625C27.125 44.3125 27.125 43 26.3125 42.25L17.75 33.625L26.3125 25.0625C27.125 24.3125 27.125 23 26.3125 22.25C25.5625 21.4375 24.25 21.4375 23.5 22.25L13.5 32.25C12.6875 33 12.6875 34.3125 13.5 35.0625L23.5 45.0625C23.875 45.4375 24.375 45.625 24.875 45.625Z" fill="white"/>
</svg>
